<svg xmlns="http://www.w3.org/2000/svg" viewBox="210 130 235 235" width="512" height="512">
  <rect x="210" y="130" width="235" height="235" rx="40" fill="#3734eb"/>
  <path d="M0 0 C-0.20625 1.134375 -0.4125 2.26875 -0.625 3.4375 C-1.12033982 7.86163102 -0.69916586 11.78871766 -0.0625 16.1875 C1.81045784 29.3260211 1.1691228 42.76288822 1 56 C1.10723389 55.22213135 1.21446777 54.4442627 1.32495117 53.64282227 C2.17025762 50.33343989 3.80510277 49.47624494 6.43603516 47.46435547 C9.33920363 44.74609064 10.64401851 41.16604402 12.1875 37.5625 C12.84715368 36.08441102 13.50730123 34.60654235 14.16796875 33.12890625 C14.63710693 32.06893433 14.63710693 32.06893433 15.11572266 30.98754883 C21.55398106 16.51657652 32.24408573 8.87795714 46 2 C47.99960012 1.960008 50.00047242 1.95653201 52 2 C52 5.63 52 9.26 52 13 C51.071875 13.350625 50.14375 13.70125 49.1875 14.0625 C38.5875691 18.68518792 30.08332123 24.64244511 25.5234375 35.5234375 C24.78030817 37.45567298 24.05567228 39.3935568 23.34082031 41.33642578 C21.29851806 46.70927245 18.44663932 50.94295407 14.90234375 55.48046875 C12.1730236 59.09527675 10.06530006 62.97862248 8 67 C9.05316406 67.02578125 10.10632813 67.0515625 11.19140625 67.078125 C33.02036112 67.82838368 63.99883007 76.99883007 80 93 C80.7849191 96.74346032 81.03562023 98.4094994 80 102 C69.45986823 115.77425723 51.70060917 122.68275101 35 125 C14.08359286 127.51220815 -6.97415595 127.24103701 -28 127 C-28.29028076 127.75885498 -28.58056152 128.51770996 -28.87963867 129.29956055 C-30.30620301 132.73805001 -32.24869461 135.73324872 -34.3125 138.8125 C-34.74038818 139.45396973 -35.16827637 140.09543945 -35.60913086 140.75634766 C-41.07795418 148.79308109 -47.11000144 157.11000144 -54 164 C-55.66617115 164.04063832 -57.33388095 164.042721 -59 164 C-59.5745952 160.26513121 -60 156.78706732 -60 153 C-58.34765625 150.87890625 -58.34765625 150.87890625 -56.0625 148.5625 C-50.65259296 142.81769396 -46.34655191 136.55579224 -42 130 C-47.89570615 130.28344741 -53.36227138 131.28404753 -59.0625 132.8125 C-66.38543015 134.76576545 -73.76766471 136.0612278 -81.25 137.25 C-82.34578369 137.4250708 -83.44156738 137.6001416 -84.57055664 137.78051758 C-88.78644953 138.43338791 -92.72413864 139 -97 139 C-97.33 135.37 -97.66 131.74 -98 128 C-97.21052979 127.86948242 -96.42105957 127.73896484 -95.60766602 127.60449219 C-91.92494574 126.99217996 -88.24333905 126.37350362 -84.5625 125.75 C-83.56419159 125.58109756 -83.56419159 125.58109756 -82.54571533 125.40878296 C-74.92609819 124.11259843 -67.3652167 122.73945915 -59.875 120.8125 C-51.0130492 118.59026462 -42.08963841 117.75830134 -33 117 C-32.75636719 116.16855469 -32.51273437 115.33710938 -32.26171875 114.48046875 C-30.81424231 110.48758481 -28.88295452 107.006645 -26.8125 103.3125 C-15.30941983 82.13033961 -10.7989442 60.80810391 -10.875 36.8125 C-10.87113281 35.58080078 -10.86726563 34.34910156 -10.86328125 33.08007812 C-10.86952644 27.28766301 -10.93576099 21.70128041 -12 16 C-24.91868432 28.99271689 -36.49814829 47.51222619 -42.4375 64.875 C-44.2644356 69.65612934 -44.2644356 69.65612934 -47.5234375 71.1796875 C-50.06313524 71.69900945 -52.41133619 71.97989387 -55 72 C-57.92183803 63.76842586 -60.18130658 55.54234789 -62 47 C-62.66 47 -63.32 47 -64 47 C-67.14131463 54.75637757 -67.4697481 61.68865629 -67.51171875 70.00390625 C-67.52966995 71.32293442 -67.54762115 72.64196259 -67.56611633 74.0009613 C-67.61327391 77.4778251 -67.64330299 80.95462559 -67.66955566 84.43170166 C-67.69953592 87.99170429 -67.74600536 91.55148942 -67.79101562 95.11132812 C-67.87665785 102.07409408 -67.94417509 109.03693278 -68 116 C-71.3 116 -74.6 116 -78 116 C-78.20126801 108.4804667 -78.38485074 100.96067177 -78.54658794 93.44018745 C-78.62225026 89.94715437 -78.70373202 86.45446984 -78.79907227 82.96191406 C-78.90871054 78.93582787 -78.99202855 74.90955328 -79.07421875 70.8828125 C-79.11157639 69.64387238 -79.14893402 68.40493225 -79.18742371 67.12844849 C-79.34887381 57.71551781 -78.08118813 49.66961159 -73.0625 41.5625 C-72.57910156 40.75941406 -72.09570312 39.95632812 -71.59765625 39.12890625 C-69.1558595 35.87516731 -67.15734251 34.20127696 -63.125 33.5 C-58.94652482 34.16855603 -56.57119937 35.74636434 -54 39 C-52.08710375 42.57475625 -50.49140181 46.23190074 -49 50 C-48.40574219 48.9584375 -47.81148438 47.916875 -47.19921875 46.84375 C-38.99992594 32.60675046 -30.49384879 18.8428523 -19 7 C-18.50757813 6.45730469 -18.01515625 5.91460937 -17.5078125 5.35546875 C-12.29367272 -0.26349555 -7.23855456 -0.28386488 0 0 Z M-5 80 C-6.49865995 82.39834877 -6.49865995 82.39834877 -7.62109375 85.43359375 C-8.08193359 86.55830078 -8.54277344 87.68300781 -9.01757812 88.84179688 C-9.48615234 90.02837891 -9.95472656 91.21496094 -10.4375 92.4375 C-11.37051675 94.74998396 -12.30667679 97.06120239 -13.24609375 99.37109375 C-13.69968262 100.48726074 -14.15327148 101.60342773 -14.62060547 102.75341797 C-16.54246737 107.27676656 -18.71607818 111.65005703 -21 116 C24.09019164 118.84749535 24.09019164 118.84749535 63.78125 102.28125 C65.32585264 100.51770713 65.32585264 100.51770713 67 98 C60.90517929 94.06092668 54.66833481 90.63557204 48.1875 87.375 C47.26646484 86.89804688 46.34542969 86.42109375 45.39648438 85.9296875 C34.2009628 80.28883688 24.57396177 78.5308611 12.0625 78.75 C10.25555664 78.75773437 10.25555664 78.75773437 8.41210938 78.765625 C1.54264022 78.48031688 1.54264022 78.48031688 -5 80 Z" fill="white" transform="translate(335,162)"/>
    <path d="M0 0 C0 2.31 0 4.62 0 7 C-2.88415883 8.44207941 -5.41721528 8.09394887 -8.625 8.0625 C-9.81351562 8.05347656 -11.00203125 8.04445313 -12.2265625 8.03515625 C-13.14179688 8.02355469 -14.05703125 8.01195312 -15 8 C-15 5.69 -15 3.38 -15 1 C-13.06263299 0.83179449 -11.12510094 0.66548905 -9.1875 0.5 C-7.56908203 0.36078125 -7.56908203 0.36078125 -5.91796875 0.21875 C-3 0 -3 0 0 0 Z" fill="white" transform="translate(330,294)"/>
    <path d="M0 0 C2.64 0 5.28 0 8 0 C8 3.63 8 7.26 8 11 C5.36 11 2.72 11 0 11 C0 7.37 0 3.74 0 0 Z" fill="white" transform="translate(332,290)"/>
</svg>